<?xml version="1.0" encoding="UTF-8" standalone="no"?>
<!DOCTYPE svg PUBLIC "-//W3C//DTD SVG 1.1//EN" "http://www.w3.org/Graphics/SVG/1.1/DTD/svg11.dtd">
<svg xmlns="http://www.w3.org/2000/svg" version="1.1" viewBox="0.00 0.00 1368.00 740.00">
<g stroke-width="2.00" fill="none" stroke-linecap="butt">
<path stroke="#80d9f1" vector-effect="non-scaling-stroke" d="
  M 1367.16 400.12
  L 1367.16 461.39
  Q 1367.16 461.90 1366.67 462.04
  C 1299.73 481.36 1230.95 494.26 1161.74 502.00
  Q 1104.91 508.36 1054.00 509.93
  Q 1018.47 511.03 975.50 510.24
  C 960.18 509.96 944.16 508.86 928.50 508.15
  Q 900.95 506.88 854.99 500.82
  C 823.87 496.71 793.05 490.97 762.53 483.69
  Q 720.42 473.65 665.49 461.76
  Q 573.13 441.77 483.87 430.38
  Q 426.31 423.04 358.74 420.62
  C 291.09 418.19 223.13 422.75 156.10 433.81
  Q 145.69 435.53 136.43 437.38
  C 102.86 444.07 69.32 452.30 36.76 462.91
  Q 18.45 468.88 0.00 474.74"
/>
<path stroke="#80d9f1" vector-effect="non-scaling-stroke" d="
  M 0.00 419.64
  L 0.00 399.99"
/>
<path stroke="#80d9f1" vector-effect="non-scaling-stroke" d="
  M 0.00 23.24
  L 0.00 13.43"
/>
</g>
<path fill="#00b3e2" d="
  M 0.00 0.00
  L 1367.14 0.00
  L 1367.16 400.12
  L 1367.16 461.39
  Q 1367.16 461.90 1366.67 462.04
  C 1299.73 481.36 1230.95 494.26 1161.74 502.00
  Q 1104.91 508.36 1054.00 509.93
  Q 1018.47 511.03 975.50 510.24
  C 960.18 509.96 944.16 508.86 928.50 508.15
  Q 900.95 506.88 854.99 500.82
  C 823.87 496.71 793.05 490.97 762.53 483.69
  Q 720.42 473.65 665.49 461.76
  Q 573.13 441.77 483.87 430.38
  Q 426.31 423.04 358.74 420.62
  C 291.09 418.19 223.13 422.75 156.10 433.81
  Q 145.69 435.53 136.43 437.38
  C 102.86 444.07 69.32 452.30 36.76 462.91
  Q 18.45 468.88 0.00 474.74
  L 0.00 419.64
  L 0.00 399.99
  L 0.00 23.24
  L 0.00 13.43
  L 0.00 0.00
  Z"
/>
<path fill="#ffffff" d="
  M 0.00 13.43
  L 0.00 23.24
  L 0.00 13.43
  Z"
/>
<path fill="#ffffff" d="
  M 1368.00 391.37
  L 1368.00 740.00
  L 0.00 740.00
  L 0.00 474.74
  Q 18.45 468.88 36.76 462.91
  C 69.32 452.30 102.86 444.07 136.43 437.38
  Q 145.69 435.53 156.10 433.81
  C 223.13 422.75 291.09 418.19 358.74 420.62
  Q 426.31 423.04 483.87 430.38
  Q 573.13 441.77 665.49 461.76
  Q 720.42 473.65 762.53 483.69
  C 793.05 490.97 823.87 496.71 854.99 500.82
  Q 900.95 506.88 928.50 508.15
  C 944.16 508.86 960.18 509.96 975.50 510.24
  Q 1018.47 511.03 1054.00 509.93
  Q 1104.91 508.36 1161.74 502.00
  C 1230.95 494.26 1299.73 481.36 1366.67 462.04
  Q 1367.16 461.90 1367.16 461.39
  L 1367.16 400.12
  Q 1368.27 396.46 1368.00 391.37
  Z"
/>
<path fill="#ffffff" d="
  M 0.00 399.99
  L 0.00 419.64
  L 0.00 399.99
  Z"
/>
</svg>
